<?xml version="1.0" encoding="UTF-8"?>
<svg id="Layer_2" data-name="Layer 2" xmlns="http://www.w3.org/2000/svg" viewBox="0 0 160 160">
  <defs>
    <style>
      .cls-1 {
        fill: #b5c1d2;
      }

      .cls-2 {
        fill: #3d6997;
      }

      .cls-3 {
        fill: #d4b038;
      }

      .cls-4 {
        fill: #f2f3f4;
      }
    </style>
  </defs>
  <g id="Layer_4" data-name="Layer 4">
    <g>
      <path class="cls-3" d="M79.02,85.79c-3.61-6.28-17.76-26.23-17.76-26.23,0,0,7.02,4.11,24.88,24.88,14.54,16.91,36.18,22.51,43.74,24.01,2.02-3.53,3.63-7.3,4.88-11.25-30.24-.16-53.53-27.21-53.53-27.21,17.06,8.83,29.7,2.51,29.7,2.51-26.26-1.78-65.12-28.6-65.12-28.6,14.85,16.25,25.08,50.87,41.44,64.52,11.79,9.84,26.96,11.02,34.52,10.91,1.87-1.98,3.63-4.07,5.21-6.3-23.76,1.74-44.47-21.2-47.95-27.25Z"/>
      <path class="cls-1" d="M49.42,111.84c7.63-3.11,23.19,1.41,30.58,8.23,6.5,5.99,21.99,8.81,33.95,6.2,2.09-1.54,4.08-3.21,5.94-5.01-16.69,2.56-31.79-3.46-39.9-12.02-8.55-9.03-23.26-13.75-37.3-8.23-8.37,3.29-13.3,2.02-15.93.45,1.59,3.93,3.57,7.65,5.94,11.1,4.39.68,11.68,1.34,16.71-.71Z"/>
      <path class="cls-2" d="M80,120.07c-7.39-6.81-22.96-11.34-30.58-8.23-5.04,2.05-12.33,1.4-16.71.71.25.36.51.71.77,1.07,9.63,13.29,24.79,22.34,42.1,23.66l3.5-11.58.92-3.05,1.01,3.34,3.41,11.29c9.11-.7,17.61-3.55,25.04-8.01,1.55-.93,3.04-1.94,4.49-3-11.97,2.61-27.46-.21-33.95-6.2Z"/>
      <path class="cls-4" d="M143.12,75.83c-2.07-31.57-27.38-56.88-58.94-58.94L80,0l-4.17,16.89c-11.78.77-22.7,4.76-31.86,11.13,1.04,1.65,2.3,3.16,3.73,4.47,8.07-5.5,17.6-9.01,27.88-9.79l4.43,14.65,4.42-14.63c28.17,2.16,50.7,24.69,52.86,52.86l-14.63,4.42,14.63,4.42c-.34,4.43-1.23,8.7-2.52,12.79-1.24,3.94-2.86,7.72-4.88,11.25-.9,1.57-1.87,3.1-2.91,4.58-1.57,2.23-3.34,4.32-5.21,6.3-.61.65-1.23,1.29-1.87,1.91-1.86,1.8-3.85,3.47-5.94,5.01-1.45,1.07-2.94,2.07-4.49,3-7.43,4.46-15.93,7.31-25.04,8.01l-3.41-11.29-1.01-3.34-.92,3.05-3.5,11.58c-17.31-1.32-32.47-10.36-42.1-23.66-.26-.36-.52-.71-.77-1.07-2.38-3.44-4.35-7.17-5.94-11.1-2.16-5.34-3.59-11.05-4.04-17.03l14.63-4.42-14.65-4.43c.77-10.11,4.18-19.5,9.53-27.48-1.31-1.44-2.81-2.7-4.46-3.75-6.22,9.08-10.11,19.86-10.87,31.48L0,80l16.88,4.17c2.07,31.57,27.38,56.88,58.94,58.94l4.17,16.88,4.17-16.88c31.57-2.07,56.88-27.38,58.94-58.94l16.88-4.17-16.88-4.17Z"/>
      <path class="cls-3" d="M37.15,53.38l1.23,7.51,1.23-7.51c1.19-7.26,6.88-12.96,14.14-14.14l7.51-1.23-7.51-1.23c-7.26-1.19-12.96-6.88-14.14-14.14l-1.23-7.51-1.23,7.51c-1.19,7.26-6.88,12.96-14.14,14.14l-7.51,1.23,7.51,1.23c7.26,1.19,12.96,6.88,14.14,14.14Z"/>
    </g>
  </g>
</svg>