<?xml version="1.0" encoding="UTF-8"?>
<svg id="Climate_Energy" data-name="Climate &amp;amp; Energy" xmlns="http://www.w3.org/2000/svg" viewBox="0 0 200 200">
  <defs>
    <style>
      .cls-1 {
        fill: #ceb14f;
      }

      .cls-2 {
        fill: #dcddde;
      }

      .cls-3 {
        fill: #f0eee6;
      }

      .cls-4 {
        fill: #476893;
      }

      .cls-5 {
        fill: #0f1328;
      }

      .cls-6 {
        fill: #f9eed4;
      }

      .cls-7 {
        fill: #b7c1d0;
      }

      .cls-8 {
        fill: #f2f3f4;
      }
    </style>
  </defs>
  <circle class="cls-5" cx="100" cy="100" r="100"/>
  <g>
    <path class="cls-7" d="M83.8,135.17h32.4v20.59c0,8.94-7.26,16.2-16.2,16.2h0c-8.94,0-16.2-7.26-16.2-16.2v-20.59h0Z"/>
    <path class="cls-8" d="M145.99,74.02c0-25.62-20.95-46.35-46.65-45.99-24.89.35-45.15,20.75-45.33,45.64-.11,14.68,6.66,27.77,17.27,36.27,6.06,4.85,9.7,12.11,9.7,19.87v.08c0,2.92,2.36,5.28,5.28,5.28h27.49c2.92,0,5.28-2.36,5.28-5.28v-.08c0-7.66,3.46-14.94,9.47-19.68,10.66-8.42,17.5-21.47,17.5-36.11Z"/>
    <path class="cls-2" d="M118.89,131.08c-.54,2.35-2.63,4.09-5.14,4.09h-27.49c-2.91,0-5.28-2.36-5.28-5.28v-.08c0-7.76-3.64-15.02-9.7-19.87-10.61-8.5-17.38-21.59-17.27-36.27.13-18.05,10.82-33.74,26.19-41.13-11.57,8.3-19.17,21.83-19.28,37.03-.11,14.68,6.66,27.77,17.27,36.27,6.06,4.85,9.7,12.1,9.7,19.87v.08c0,2.91,2.36,5.28,5.28,5.28h25.73Z"/>
    <rect class="cls-4" x="75.65" y="135.17" width="48.71" height="10.35" rx="5.17" ry="5.17"/>
    <rect class="cls-4" x="75.65" y="150.23" width="48.71" height="10.35" rx="5.17" ry="5.17"/>
    <g>
      <path class="cls-1" d="M74.04,76.95c0,3.23-7.34,7.59-6.39,10.51s9.51,2.23,11.35,4.74-1.53,10.41,1.01,12.26,8.94-3.8,11.97-2.82,4.79,9.31,8.02,9.31,5.11-8.36,8.02-9.31,9.45,4.65,11.97,2.82-.84-9.71,1.01-12.26,10.36-1.72,11.35-4.74-6.39-7.28-6.39-10.51,7.34-7.59,6.39-10.51-9.51-2.23-11.35-4.74,1.53-10.41-1.01-12.26-8.94,3.8-11.97,2.82-4.79-9.31-8.02-9.31-5.11,8.36-8.02,9.31-9.45-4.65-11.97-2.82.84,9.71-1.01,12.26-10.36,1.72-11.35,4.74,6.39,7.28,6.39,10.51Z"/>
      <circle class="cls-3" cx="100" cy="76.95" r="17.71"/>
    </g>
    <ellipse class="cls-6" cx="110.03" cy="70.18" rx="2.34" ry="4.95" transform="translate(-19.77 56.61) rotate(-26.57)"/>
    <ellipse class="cls-6" cx="111.97" cy="79.96" rx="3.61" ry="1.71" transform="translate(27.85 188.84) rotate(-87.84)"/>
  </g>
</svg>