<?xml version="1.0" encoding="UTF-8"?>
<svg id="Hardware_Device" data-name="Hardware &amp;amp; Device" xmlns="http://www.w3.org/2000/svg" viewBox="0 0 200 200">
  <defs>
    <style>
      .cls-1 {
        fill: none;
      }

      .cls-2 {
        fill: #ceb14f;
      }

      .cls-3 {
        fill: #dcddde;
      }

      .cls-4 {
        fill: #f0eee6;
      }

      .cls-5 {
        fill: #1e1e1f;
      }

      .cls-6 {
        fill: #f2f3f4;
      }
    </style>
  </defs>
  <circle class="cls-5" cx="100" cy="100" r="100"/>
  <g>
    <g>
      <g>
        <path class="cls-6" d="M92.32,74.35c1.09-1.12,1.52-2.75,1.12-4.27l-5.92-22.56c-.4-1.53-1.57-2.72-3.06-3.13l-23.04-6.3c-.91-.25-1.88.02-2.54.7-1.03,1.05-1.03,2.75,0,3.8l19.15,19.55c1.64,1.67,1.64,4.38,0,6.05l-7.91,8.07c-1.64,1.67-4.29,1.67-5.93,0l-19.15-19.55c-1.03-1.05-2.7-1.05-3.72,0h0c-.67.68-.92,1.67-.68,2.6l6.18,23.52c.4,1.53,1.57,2.72,3.06,3.13l22.09,6.05c1.49.41,3.09-.03,4.18-1.14l1.7-1.74,51.61,52.69c-1.08,5.34.41,11.12,4.47,15.26,6.42,6.55,16.83,6.55,23.25,0s6.42-17.18,0-23.74c-4.06-4.15-9.72-5.67-14.95-4.57l-51.61-52.69,1.7-1.74ZM151.3,135.06c.76.45-.01,2.98.64,3.64s3.13-.12,3.56.65c.45.8-1.46,2.6-1.23,3.48.23.89,2.76,1.47,2.76,2.39,0,.91-2.53,1.5-2.76,2.39-.23.87,1.68,2.67,1.23,3.48-.44.77-2.92-.01-3.56.65s.12,3.19-.64,3.64c-.79.46-2.55-1.49-3.4-1.25-.87.23-1.44,2.82-2.34,2.82-.89,0-1.47-2.59-2.34-2.82-.86-.23-2.62,1.72-3.4,1.25-.76-.45.01-2.98-.64-3.64s-3.13.12-3.56-.65c-.45-.8,1.46-2.6,1.23-3.48-.23-.89-2.77-1.47-2.76-2.39,0-.91,2.53-1.5,2.76-2.39.23-.87-1.68-2.67-1.23-3.48.44-.77,2.92.01,3.56-.65s-.12-3.19.64-3.64c.79-.46,2.55,1.49,3.4,1.25.87-.23,1.44-2.82,2.34-2.82.89,0,1.47,2.59,2.34,2.82.86.23,2.62-1.72,3.4-1.25Z"/>
        <path class="cls-3" d="M139.55,135.45c-.17.06-.31.14-.38.27-.18.32.01.79.29,1.3-.01-.59-.04-1.19.09-1.58ZM153.58,151.44c.5.29.96.48,1.28.3.13-.07.21-.21.27-.39-.38.13-.97.1-1.55.09ZM137.49,153.46c-4.06-4.15-5.55-9.92-4.47-15.26l-51.61-52.69-1.7,1.74c-1.09,1.12-2.69,1.55-4.18,1.15l-22.09-6.05c-1.49-.41-2.66-1.6-3.06-3.13l-6.04-23.01c-.98-.48-2.19-.31-3,.52h0c-.66.68-.92,1.67-.68,2.6l6.18,23.52c.4,1.53,1.57,2.72,3.06,3.13l22.1,6.05c1.49.41,3.09-.03,4.18-1.14l1.7-1.74,51.61,52.69c-1.08,5.34.41,11.12,4.47,15.26,6.42,6.55,16.83,6.55,23.25,0,.61-.62,1.15-1.27,1.64-1.95-6.43,4.82-15.52,4.26-21.34-1.68Z"/>
        <polygon class="cls-3" points="95.01 80.57 82.24 93.61 77.85 89.13 90.62 76.09 95.01 80.57"/>
      </g>
      <g>
        <g>
          <polygon class="cls-2" points="81.21 132.71 67.32 118.53 75.65 110.03 89.54 124.21 81.21 132.71"/>
          <path class="cls-2" d="M51.19,160.33l-10.92-11.15c-2.18-2.22-2.18-5.83,0-8.05l24.84-25.36c2.18-2.22,5.71-2.22,7.88,0l10.92,11.15c2.18,2.22,2.18,5.83,0,8.05l-24.84,25.36c-2.18,2.22-5.71,2.22-7.88,0Z"/>
          <path class="cls-2" d="M94.73,121.69l-16.61-16.96c-1.31-1.33-3.42-1.33-4.73,0h0c-1.31,1.33-1.31,3.49,0,4.83l16.61,16.96c1.31,1.33,3.42,1.33,4.73,0h0c1.31-1.33,1.31-3.49,0-4.83Z"/>
          <path class="cls-2" d="M43.66,144.62h0c-1.17-1.19-1.17-3.13,0-4.32l20.37-20.79c1.17-1.19,3.07-1.19,4.24,0h0c1.17,1.19,1.17,3.13,0,4.32l-20.37,20.79c-1.17,1.19-3.07,1.19-4.24,0Z"/>
          <path class="cls-2" d="M49.66,150.74h0c-1.17-1.19-1.17-3.13,0-4.32l20.37-20.79c1.17-1.19,3.07-1.19,4.24,0h0c1.17,1.19,1.17,3.13,0,4.32l-20.37,20.79c-1.17,1.19-3.07,1.19-4.24,0Z"/>
          <path class="cls-2" d="M55.66,156.87h0c-1.17-1.19-1.17-3.13,0-4.32l20.37-20.79c1.17-1.19,3.07-1.19,4.24,0h0c1.17,1.19,1.17,3.13,0,4.32l-20.37,20.79c-1.17,1.19-3.07,1.19-4.24,0Z"/>
        </g>
        <path class="cls-3" d="M144.42,63.38l6.02-10.19c.28-.47.21-1.08-.18-1.47l-3.61-3.69c-.38-.39-.98-.47-1.44-.18l-9.98,6.15c-.87.53-1.54,1.34-1.91,2.3l-1.92,4.94-.04-.04-47.94,48.94,6,6.12,47.94-48.94-.04-.04,4.84-1.96c.94-.38,1.73-1.07,2.26-1.95Z"/>
        <polygon class="cls-4" points="93.39 112.23 87.39 106.1 83.42 110.15 89.42 116.28 93.39 112.23"/>
      </g>
    </g>
    <g>
      <path class="cls-1" d="M150.66,135.06c.76.45-.01,2.98.64,3.64s3.13-.12,3.56.65c.45.8-1.46,2.6-1.23,3.48.23.89,2.76,1.47,2.76,2.39,0,.91-2.53,1.5-2.76,2.39-.23.87,1.68,2.67,1.23,3.48-.44.77-2.92-.01-3.56.65s.12,3.19-.64,3.64c-.79.46-2.55-1.49-3.4-1.25-.87.23-1.44,2.82-2.34,2.82-.89,0-1.47-2.59-2.34-2.82-.86-.23-2.62,1.72-3.4,1.25-.76-.45.01-2.98-.64-3.64s-3.13.12-3.56-.65c-.45-.8,1.46-2.6,1.23-3.48-.23-.89-2.77-1.47-2.76-2.39,0-.91,2.53-1.5,2.76-2.39.23-.87-1.68-2.67-1.23-3.48.44-.77,2.92.01,3.56-.65s-.12-3.19.64-3.64c.79-.46,2.55,1.49,3.4,1.25.87-.23,1.44-2.82,2.34-2.82.89,0,1.47,2.59,2.34,2.82.86.23,2.62-1.72,3.4-1.25ZM109.07,95.57l32.53,33.21c5.23-1.1,10.89.42,14.95,4.57,6.42,6.55,6.42,17.18,0,23.73-6.42,6.55-16.83,6.55-23.25,0-4.06-4.15-5.55-9.92-4.47-15.26l-32.53-33.21M90.3,102.49l-13.09-13.36-1.7,1.74c-1.09,1.12-2.69,1.55-4.18,1.15l-22.09-6.05c-1.49-.41-2.66-1.6-3.06-3.12l-6.18-23.52c-.24-.93.02-1.92.68-2.6h0c1.03-1.05,2.69-1.05,3.72,0l19.14,19.54c1.64,1.67,4.29,1.67,5.93,0l7.91-8.07c1.64-1.67,1.64-4.38,0-6.05l-19.15-19.55c-1.03-1.05-1.03-2.75,0-3.8.67-.68,1.64-.95,2.55-.7l23.04,6.3c1.49.41,2.66,1.6,3.06,3.13l5.92,22.56c.4,1.53-.03,3.16-1.12,4.27l-1.7,1.74,13.09,13.36"/>
      <polygon class="cls-1" points="84.76 128.44 70.87 114.26 74.11 110.95 88 125.13 84.76 128.44"/>
      <path class="cls-1" d="M50.56,160.33l-10.92-11.15c-2.18-2.22-2.18-5.83,0-8.05l24.84-25.36c2.18-2.22,5.71-2.22,7.88,0l10.92,11.15c2.18,2.22,2.18,5.83,0,8.05l-24.84,25.36c-2.18,2.22-5.71,2.22-7.88,0Z"/>
      <path class="cls-1" d="M94.09,121.69l-16.61-16.96c-1.31-1.33-3.42-1.33-4.73,0h0c-1.31,1.33-1.31,3.49,0,4.83l16.61,16.96c1.31,1.33,3.42,1.33,4.73,0h0c1.31-1.33,1.31-3.49,0-4.83Z"/>
      <path class="cls-1" d="M143.79,63.38l6.02-10.19c.28-.47.21-1.08-.18-1.47l-3.61-3.69c-.38-.39-.98-.47-1.44-.18l-9.98,6.15c-.87.53-1.54,1.34-1.91,2.3l-1.92,4.94-.04-.04-47.94,48.94,6,6.12,47.94-48.94-.04-.04,4.84-1.96c.94-.38,1.73-1.07,2.26-1.95Z"/>
    </g>
  </g>
</svg>