<?xml version="1.0" encoding="UTF-8"?>
<svg id="Mobility_Transportation" data-name="Mobility &amp;amp; Transportation" xmlns="http://www.w3.org/2000/svg" viewBox="0 0 200 200">
  <defs>
    <style>
      .cls-1 {
        fill: #ceb14f;
      }

      .cls-2 {
        fill: #151516;
      }

      .cls-3 {
        fill: #dcddde;
      }

      .cls-4 {
        fill: #476893;
      }

      .cls-5 {
        fill: #0f1328;
      }

      .cls-6 {
        fill: #b7c1d0;
      }

      .cls-7 {
        fill: #b1d5e6;
      }

      .cls-8 {
        fill: #f2f3f4;
      }
    </style>
  </defs>
  <circle class="cls-4" cx="100" cy="100" r="100"/>
  <g>
    <path class="cls-2" d="M168.95,165.72h-11.67l-9.42-14.45h11.12c2.7,0,4.88-2.19,4.88-4.88s-2.19-4.88-4.88-4.88h-17.48l-8.52-13.08c-1.47-2.26-4.5-2.9-6.76-1.43-2.26,1.47-2.9,4.5-1.43,6.75l5.05,7.75h-60.71l5.05-7.75c1.47-2.26.83-5.28-1.43-6.75-2.26-1.47-5.29-.84-6.76,1.43l-8.52,13.08h-16.46c-2.7,0-4.88,2.18-4.88,4.88s2.19,4.88,4.88,4.88h10.09l-9.41,14.45h-10.64c-1.81,0-3.39.98-4.23,2.45,2.39,2.57,4.92,5.01,7.57,7.31h.94l-.34.52c2.48,2.13,5.06,4.13,7.75,6l4.25-6.52h105l4.57,7.01c2.7-1.85,5.3-3.83,7.79-5.93l-.71-1.08h1.97c2.65-2.3,5.18-4.75,7.57-7.31-.84-1.47-2.42-2.45-4.23-2.45ZM53.35,165.72l9.41-14.45h73.44l9.41,14.45H53.35Z"/>
    <g>
      <path class="cls-3" d="M136.18,132.91c-23.86,14.15-47.72,14.15-71.59,0-11.76,0-21.07-11.36-20.31-24.77l3.66-64.64c1-17.74,13.89-31.55,29.44-31.55h46.01c15.55,0,28.43,13.8,29.44,31.55l3.66,64.64c.76,13.41-8.55,24.77-20.31,24.77Z"/>
      <path class="cls-1" d="M134.57,118.2h-68.36c-11.23,0-20.12-9.49-19.4-20.69l3.49-54c.96-14.82,13.26-26.35,28.11-26.35h43.94c14.85,0,27.15,11.53,28.11,26.35l3.49,54c.72,11.2-8.17,20.69-19.4,20.69Z"/>
      <path class="cls-5" d="M130.21,111.75h-59.64c-9.8,0-17.55-8.28-16.92-18.05l3.05-47.11c.84-12.93,11.57-22.99,24.53-22.99h38.34c12.96,0,23.69,10.06,24.53,22.99l3.05,47.11c.63,9.78-7.13,18.05-16.92,18.05Z"/>
      <path class="cls-6" d="M134.83,75.31h-68.87c-1.54,0-2.89-.71-3.79-1.81-.78-.96-1.19-2.22-1.05-3.57l2.87-27.08c.26-2.47,2.35-4.35,4.84-4.35h63.12c1.12,0,2.16.38,3,1.04,1,.79,1.7,1.96,1.84,3.32l2.87,27.08c.3,2.87-1.95,5.38-4.84,5.38Z"/>
      <circle class="cls-8" cx="64.62" cy="97.62" r="5.47"/>
      <circle class="cls-8" cx="77.23" cy="97.62" r="3.76"/>
      <circle class="cls-8" cx="136.18" cy="97.62" r="5.47"/>
      <circle class="cls-8" cx="123.56" cy="97.62" r="3.76"/>
      <path class="cls-6" d="M115,38.51l-36.8,36.8h-12.24c-1.54,0-2.89-.71-3.79-1.81l34.99-35h17.84Z"/>
      <path class="cls-6" d="M134.95,39.54l-35.77,35.77h-9.84l36.8-36.8h5.81c1.12,0,2.16.38,3,1.04Z"/>
      <rect class="cls-7" x="81.84" y="27.05" width="37.5" height="7.88" rx="3.58" ry="3.58"/>
    </g>
  </g>
</svg>