<?xml version="1.0" encoding="UTF-8"?>
<svg id="PropTech" xmlns="http://www.w3.org/2000/svg" viewBox="0 0 200 200">
  <defs>
    <style>
      .cls-1 {
        fill: #ceb14f;
      }

      .cls-2 {
        fill: #151516;
      }

      .cls-3 {
        fill: #dcddde;
      }

      .cls-4 {
        fill: #f0eee6;
      }

      .cls-5 {
        fill: #476893;
      }

      .cls-6 {
        fill: #0f1328;
      }

      .cls-7 {
        fill: #1e1e1f;
      }

      .cls-8 {
        fill: #f2f3f4;
      }
    </style>
  </defs>
  <path class="cls-4" d="M199.93,100c0,55.09-44.74,99.74-99.93,99.74S.07,155.09.07,100,44.81.26,100,.26s99.93,44.65,99.93,99.74Z"/>
  <g>
    <g>
      <g>
        <path class="cls-2" d="M163.33,142.3c0,1.52-1.23,2.75-2.75,2.75H39.42c-1.52,0-2.75-1.23-2.75-2.75V53.33c0-1.52,1.24-2.75,2.75-2.75h121.15c1.52,0,2.75,1.23,2.75,2.75v88.97Z"/>
        <rect class="cls-7" x="42.87" y="56.67" width="114.26" height="71.99"/>
      </g>
      <path class="cls-2" d="M175,144.83c0,2.53-2.06,4.58-4.59,4.58H29.59c-2.54,0-4.59-2.05-4.59-4.58v-4.58c0-2.53,2.06-4.58,4.59-4.58h140.82c2.54,0,4.59,2.05,4.59,4.58v4.58Z"/>
    </g>
    <g>
      <rect class="cls-3" x="107.47" y="86.6" width="30.78" height="32.63"/>
      <polygon class="cls-1" points="142.43 87.78 121.77 62.42 89.58 62.42 110.24 87.78 142.43 87.78"/>
      <rect class="cls-8" x="109.89" y="90.71" width="28.36" height="28.52"/>
      <polygon class="cls-3" points="89.67 64.61 70.89 86.6 70.89 119.23 108.45 119.23 108.45 86.6 89.67 64.61"/>
      <rect class="cls-6" x="85.71" y="105.21" width="9.93" height="14.02"/>
      <path class="cls-1" d="M68.38,87.78h3.56l17.75-20.78,17.75,20.78h3.9l-21.65-25.36-21.69,25.4c.12-.03.24-.04.38-.04Z"/>
      <g>
        <ellipse class="cls-5" cx="90.73" cy="89.15" rx="6.95" ry="6.94"/>
        <rect class="cls-3" x="89.92" y="81.21" width="1.63" height="15.88"/>
        <rect class="cls-3" x="82.78" y="88.34" width="15.91" height="1.63"/>
      </g>
      <rect class="cls-1" x="85.69" y="96.5" width="10.09" height="2.13"/>
    </g>
  </g>
</svg>