<?xml version="1.0" encoding="UTF-8"?>
<svg id="Education" xmlns="http://www.w3.org/2000/svg" viewBox="0 0 200 200">
  <defs>
    <style>
      .cls-1 {
        fill: #ceb14f;
      }

      .cls-2 {
        fill: #476893;
      }

      .cls-3 {
        fill: #0f1328;
      }

      .cls-4 {
        fill: none;
        stroke: #0e1329;
        stroke-linejoin: round;
        stroke-width: 7px;
      }

      .cls-5 {
        fill: #b1d5e6;
      }
    </style>
  </defs>
  <circle class="cls-5" cx="100" cy="100" r="100"/>
  <g>
    <path class="cls-2" d="M146.21,123.29c-30.92,8.92-62.24,8.91-93.95-.02-2.56-.72-4.32-3.07-4.32-5.73v-37.71s102.56,0,102.56,0v37.74c0,2.65-1.74,4.98-4.29,5.72Z"/>
    <path class="cls-2" d="M108.59,106.73l63.11-27.25c2.5-1.08,2.2-4.71-.43-5.37l-60.49-15.27c-7.59-1.92-15.55-1.92-23.14,0l-60.49,15.27c-2.64.67-2.93,4.3-.43,5.37l63.11,27.25c5.99,2.59,12.78,2.59,18.77,0Z"/>
    <path class="cls-3" d="M150.49,88.64v8.3l-41.9,18.09c-5.99,2.59-12.78,2.59-18.77,0l-41.9-18.09v-8.3l41.9,18.09c5.99,2.59,12.78,2.59,18.77,0l41.9-18.09Z"/>
    <ellipse class="cls-3" cx="99.28" cy="77.07" rx="15.61" ry="5.97"/>
    <polyline class="cls-4" points="99.28 77.07 163.47 83.04 163.47 112.61"/>
    <g>
      <circle class="cls-1" cx="163.47" cy="114.25" r="7.41"/>
      <path class="cls-1" d="M163.47,110.65l-11.29,27.61c-.85,2.07.68,4.33,2.91,4.33h16.77c2.23,0,3.76-2.27,2.91-4.33l-11.29-27.61Z"/>
      <path class="cls-1" d="M168.49,122.92c-1.32,1.22-3.09,1.96-5.02,1.96s-3.7-.74-5.02-1.96l1.01-2.45c1.16.75,2.53,1.19,4.02,1.19s2.86-.44,4.02-1.19l1.01,2.45Z"/>
      <path class="cls-1" d="M164.94,121.51c-.48.1-.97.15-1.47.15-4.1,0-7.41-3.32-7.41-7.41s3.32-7.41,7.41-7.41c.5,0,.99.05,1.47.15-3.39.68-5.94,3.67-5.94,7.26s2.56,6.58,5.94,7.26Z"/>
    </g>
  </g>
</svg>