<?xml version="1.0" encoding="UTF-8"?>
<svg id="Real_Estate" data-name="Real Estate" xmlns="http://www.w3.org/2000/svg" viewBox="0 0 200 200">
  <defs>
    <style>
      .cls-1 {
        fill: #ceb14f;
      }

      .cls-2 {
        fill: #151516;
      }

      .cls-3 {
        fill: #dcddde;
      }

      .cls-4 {
        fill: #f0eee6;
      }

      .cls-5 {
        fill: #476893;
      }

      .cls-6 {
        fill: #0f1328;
      }

      .cls-7 {
        fill: #1e1e1f;
      }

      .cls-8 {
        fill: #b7c1d0;
      }
    </style>
  </defs>
  <circle class="cls-8" cx="100" cy="100" r="100"/>
  <g>
    <path class="cls-3" d="M177.89,163.09c-13,16.13-30.92,28.14-51.48,33.75-8.41,2.3-17.27,3.53-26.41,3.53-9.66,0-19-1.37-27.84-3.93-19.96-5.77-37.35-17.59-50.05-33.35h155.77Z"/>
    <path class="cls-7" d="M126.41,196.84c-8.41,2.3-17.27,3.53-26.41,3.53-9.66,0-19-1.37-27.84-3.93l10.62-33.09h33.39l10.23,33.49Z"/>
    <rect class="cls-4" x="36.38" y="84.35" width="130.08" height="78.74"/>
    <path class="cls-1" d="M89.34,111.08h20.28c3.62,0,6.56,2.94,6.56,6.56v45.72h-33.39v-45.72c0-3.62,2.94-6.56,6.56-6.56Z"/>
    <path class="cls-1" d="M153.99,101.73h-27.43c-1.65,0-2.98,1.34-2.98,2.98v27.43c0,1.65,1.34,2.98,2.98,2.98h27.43c1.65,0,2.98-1.34,2.98-2.98v-27.43c0-1.65-1.34-2.98-2.98-2.98ZM151.01,129.16h-21.47v-21.47h21.47v21.47Z"/>
    <path class="cls-1" d="M74.21,101.73h-27.43c-1.65,0-2.98,1.34-2.98,2.98v27.43c0,.7.24,1.35.65,1.86.55.69,1.39,1.12,2.33,1.12h27.43c1.65,0,2.98-1.34,2.98-2.98v-27.43c0-1.65-1.34-2.98-2.98-2.98ZM71.23,129.16h-21.47v-21.47h21.47v21.47Z"/>
    <rect class="cls-5" x="49.76" y="107.7" width="21.47" height="21.47"/>
    <rect class="cls-5" x="129.54" y="107.7" width="21.47" height="21.47"/>
    <path class="cls-6" d="M164.94,31.58H37.89c-2.76,0-5.14,1.86-5.74,4.47l-5.59,41.83c-.81,3.55,1.98,6.92,5.74,6.92h138.24c3.75,0,6.54-3.37,5.74-6.92l-5.59-41.83c-.59-2.61-2.98-4.47-5.74-4.47Z"/>
    <rect class="cls-2" x="82.78" y="167.55" width="17.8" height="6.45" rx="2.92" ry="2.92"/>
    <rect class="cls-2" x="98.38" y="175.28" width="17.8" height="6.45" rx="2.92" ry="2.92"/>
    <rect class="cls-2" x="89.37" y="184.07" width="22.02" height="6.45" rx="2.92" ry="2.92"/>
    <rect class="cls-2" x="103.48" y="167.55" width="10.21" height="6.45" rx="2.92" ry="2.92"/>
    <rect class="cls-2" x="84.14" y="175.28" width="10.21" height="6.45" rx="2.92" ry="2.92"/>
  </g>
</svg>