<?xml version="1.0" encoding="UTF-8"?>
<svg id="Consumer_Lifestyle" data-name="Consumer Lifestyle" xmlns="http://www.w3.org/2000/svg" viewBox="0 0 200 200">
  <defs>
    <style>
      .cls-1 {
        fill: #ceb14f;
      }

      .cls-2 {
        fill: #dcddde;
      }

      .cls-3 {
        fill: #f0eee6;
      }

      .cls-4 {
        fill: #476893;
      }

      .cls-5 {
        fill: #0f1328;
      }

      .cls-6 {
        fill: #b7c1d0;
      }

      .cls-7 {
        fill: #b1d5e6;
      }

      .cls-8 {
        fill: #f2f3f4;
      }
    </style>
  </defs>
  <path class="cls-1" d="M200,100c0,1.28-.02,2.55-.07,3.82-.11,3.05-.36,6.07-.75,9.04-.4,3.09-.93,6.12-1.61,9.12-.41,1.86-.89,3.71-1.41,5.53-.45,1.55-.93,3.09-1.44,4.61-.37,1.09-.76,2.18-1.17,3.25-.17.46-.35.91-.53,1.36-.27.7-.55,1.39-.84,2.07-.18.43-.37.86-.55,1.29-.38.87-.77,1.74-1.18,2.59-.97,2.05-2.01,4.07-3.11,6.04-.89,1.59-1.82,3.16-2.8,4.7-.37.58-.74,1.16-1.12,1.73-.77,1.16-1.55,2.3-2.37,3.42-.35.49-.71.98-1.08,1.46-.21.28-.42.56-.64.84-.09.12-.19.25-.28.37-.47.61-.95,1.21-1.43,1.8-.02.02-.04.04-.05.06-.96,1.18-1.95,2.33-2.96,3.46-.19.21-.38.42-.57.63-.09.1-.18.2-.27.3-.55.6-1.11,1.2-1.67,1.78-.03.04-.07.07-.1.1-.54.57-1.1,1.13-1.66,1.68-.61.61-1.23,1.2-1.85,1.79-.05.05-.11.1-.16.15-.05.04-.09.09-.14.13-.04.04-.09.08-.13.12-.45.42-.9.83-1.36,1.24-.69.62-1.38,1.23-2.09,1.82-.57.48-1.15.96-1.73,1.43-.4.33-.81.65-1.21.97-.3.23-.59.46-.89.69-1.29.99-2.61,1.95-3.95,2.88-.87.6-1.75,1.19-2.64,1.76-.27.18-.55.36-.83.53-.91.58-1.83,1.14-2.76,1.68-.19.11-.38.23-.58.34-.07.04-.14.08-.2.12-.07.04-.14.08-.22.12-.54.31-1.09.62-1.64.92-.21.11-.42.23-.63.34-.02.01-.04.02-.07.04-.11.06-.23.12-.35.19-.28.15-.55.3-.84.44-.29.16-.59.31-.89.46-.05.03-.11.05-.16.08-.25.12-.5.25-.75.38-.55.28-1.12.55-1.68.81-.05.03-.11.05-.16.08-.04.02-.07.04-.11.05-.41.19-.81.38-1.22.56-.82.37-1.65.73-2.48,1.08-.57.24-1.15.48-1.73.71-.07.03-.15.06-.23.09-.69.27-1.38.54-2.08.79-.78.29-1.56.57-2.35.83-.61.21-1.21.41-1.82.6-.13.04-.26.09-.39.12-.19.07-.38.12-.58.18-.2.06-.39.12-.59.18-1.84.56-3.7,1.06-5.59,1.5-.47.11-.93.22-1.41.32h0c-.26.06-.53.11-.79.17-.17.04-.33.07-.5.11-1.59.34-3.19.63-4.81.88-.72.12-1.45.23-2.18.32-.79.11-1.59.21-2.39.3-.55.06-1.09.11-1.64.16-.56.05-1.13.11-1.7.14-1.44.12-2.89.2-4.36.25-.2,0-.4.02-.6.02-.12,0-.24,0-.36,0-.15,0-.3,0-.45,0-.12,0-.23,0-.35,0h-.6c-.1.02-.2.02-.29.02-.15,0-.3,0-.46,0-.13,0-.27,0-.41,0h-.11c-.27,0-.54,0-.8,0-.28,0-.57,0-.85-.01-.3,0-.61-.01-.91-.02-.15,0-.3,0-.45-.02-.68-.02-1.35-.05-2.02-.08-.97-.05-1.93-.11-2.89-.19h0c-.16-.01-.32-.02-.48-.04-.35-.03-.7-.06-1.05-.09-.06,0-.12-.01-.18-.02-.92-.09-1.84-.19-2.75-.3-.23-.03-.46-.06-.69-.09-.17-.02-.34-.04-.51-.07-1.14-.16-2.27-.33-3.39-.53-1.45-.25-2.88-.53-4.3-.84-.54-.12-1.08-.24-1.62-.37-1.3-.3-2.59-.64-3.87-.99-.15-.04-.29-.08-.44-.12-.04-.01-.08-.02-.12-.04-.46-.13-.93-.26-1.39-.4-.28-.09-.56-.17-.84-.26-.15-.05-.29-.09-.44-.14-.39-.12-.77-.25-1.16-.37-.35-.12-.7-.23-1.05-.35-.49-.17-.97-.34-1.46-.51-.02,0-.03-.01-.04-.02-.74-.27-1.47-.54-2.2-.82-.06-.02-.12-.05-.18-.07-.55-.21-1.09-.43-1.64-.65-1.6-.65-3.17-1.34-4.73-2.08-.58-.27-1.16-.55-1.73-.83h-.02c-.58-.3-1.16-.59-1.73-.89-.41-.21-.82-.43-1.23-.66-.1-.05-.2-.11-.3-.16-.13-.07-.26-.14-.39-.21-.26-.14-.52-.29-.79-.44-.14-.07-.27-.15-.41-.23-1.41-.79-2.8-1.62-4.16-2.49-.15-.09-.3-.19-.46-.29-.68-.43-1.36-.88-2.03-1.33-.5-.34-1-.68-1.5-1.03-.93-.64-1.84-1.31-2.74-1.99-.04-.03-.07-.06-.11-.09-.51-.39-1.02-.77-1.52-1.17-.65-.51-1.29-1.02-1.93-1.55-.34-.28-.68-.57-1.02-.86-.87-.73-1.72-1.48-2.56-2.25-.34-.31-.68-.62-1.02-.93-.05-.04-.09-.09-.14-.13-.05-.05-.11-.1-.16-.15-1.2-1.13-2.37-2.28-3.5-3.46-.03-.04-.07-.07-.1-.1-.56-.59-1.12-1.18-1.67-1.78-.09-.1-.18-.2-.27-.3-.2-.21-.39-.42-.57-.63-.21-.23-.42-.47-.62-.71-.22-.25-.45-.51-.66-.77-.57-.66-1.12-1.32-1.67-1.99-.06-.07-.12-.14-.18-.21-.77-.94-1.51-1.89-2.23-2.86-1.16-1.54-2.28-3.12-3.35-4.73-.04-.05-.07-.1-.1-.15-.38-.57-.75-1.15-1.12-1.73-.16-.26-.32-.52-.48-.77-.8-1.29-1.57-2.59-2.31-3.92-.57-1.02-1.12-2.05-1.66-3.1-.5-.97-.99-1.95-1.46-2.95-.11-.22-.21-.45-.32-.68-.29-.64-.58-1.27-.86-1.92-.19-.43-.38-.86-.55-1.29-.03-.07-.06-.15-.09-.23-.26-.61-.51-1.23-.75-1.85-.18-.45-.36-.91-.53-1.36-.04-.09-.07-.18-.1-.27-.14-.39-.29-.78-.43-1.17-.18-.49-.35-.98-.52-1.48-.56-1.62-1.07-3.27-1.55-4.94-.52-1.82-.99-3.67-1.41-5.54-.68-2.99-1.21-6.03-1.61-9.12-.06-.49-.12-.98-.18-1.48-.28-2.49-.47-5.02-.57-7.56-.05-1.27-.07-2.54-.07-3.82,0-.71,0-1.41.02-2.11.04-1.93.13-3.84.29-5.74.66-8.55,2.4-16.79,5.08-24.6,1.56-4.55,3.44-8.96,5.62-13.19,3.16-6.15,6.94-11.93,11.26-17.27,3-3.71,6.27-7.2,9.77-10.44.26-.24.52-.48.79-.72,2.25-2.05,4.6-3.99,7.03-5.82.94-.71,1.89-1.4,2.85-2.07.99-.7,1.99-1.37,3.01-2.03,1.11-.72,2.24-1.42,3.38-2.09.82-.49,1.64-.96,2.47-1.42.52-.29,1.04-.57,1.56-.85,2.35-1.25,4.77-2.41,7.23-3.48,2.32-1,4.7-1.93,7.11-2.75.43-.15.86-.29,1.29-.43.65-.22,1.31-.43,1.97-.62.6-.19,1.2-.36,1.8-.54,2.01-.57,4.04-1.09,6.11-1.54,1.9-.41,3.82-.77,5.76-1.07,2-.32,4.02-.57,6.06-.76,1.71-.16,3.43-.28,5.16-.36.02,0,.03,0,.05,0,.62-.03,1.25-.05,1.88-.06h.02s.02,0,.03,0c.81-.02,1.61-.03,2.43-.03.57,0,1.14,0,1.7.02.26,0,.52,0,.78.02,0,0,0,0,0,0h.03c.41.01.82.02,1.24.04h.02c2.5.09,4.98.28,7.43.55.43.05.86.1,1.29.15,2.91.36,5.77.85,8.59,1.45,1.71.37,3.41.78,5.08,1.23.44.12.88.24,1.32.37,1.84.52,3.65,1.1,5.45,1.72,3.13,1.09,6.18,2.33,9.16,3.71.7.33,1.41.66,2.1,1.01.91.45,1.81.91,2.7,1.38.52.27,1.03.55,1.54.84,2.27,1.26,4.48,2.6,6.63,4.02.59.39,1.17.79,1.75,1.19,2.08,1.44,4.1,2.95,6.06,4.54,1.3,1.05,2.57,2.14,3.82,3.26.46.4.91.81,1.36,1.23.23.21.46.42.68.64,3.82,3.62,7.37,7.54,10.58,11.73,6.61,8.59,11.84,18.28,15.39,28.75,3.42,10.09,5.28,20.89,5.28,32.14Z"/>
  <g>
    <path class="cls-3" d="M177.56,163.11c-.96,1.18-1.95,2.33-2.96,3.46-.19.21-.38.42-.57.63-.09.1-.18.2-.27.3-.55.6-1.11,1.2-1.67,1.78-.03.04-.07.07-.1.1-.54.57-1.1,1.13-1.66,1.68-.61.61-1.23,1.2-1.85,1.79-.05.05-.11.1-.16.15-.05.04-.09.09-.14.13-.04.04-.09.08-.13.12-.45.42-.9.83-1.36,1.24-.69.62-1.38,1.23-2.09,1.82-.57.48-1.15.96-1.73,1.43-.4.33-.81.65-1.21.97-.3.23-.59.46-.89.69-1.29.99-2.61,1.95-3.95,2.88-.87.6-1.75,1.19-2.64,1.76-.27.18-.55.36-.83.53-.91.58-1.83,1.14-2.76,1.68-.19.11-.38.23-.58.34-.07.04-.14.08-.2.12-.07.04-.14.08-.22.12-.54.31-1.09.62-1.64.92-.21.11-.42.23-.63.34-.02.01-.04.02-.07.04-.11.06-.23.12-.35.19-.28.15-.55.3-.84.44-.29.16-.59.31-.89.46-.05.03-.11.05-.16.08-.25.12-.5.25-.75.38-.55.28-1.12.55-1.68.81-.05.03-.11.05-.16.08-.04.02-.07.04-.11.05-.41.19-.81.38-1.22.56-.82.37-1.65.73-2.48,1.08-.57.24-1.15.48-1.73.71-.07.03-.15.06-.23.09-.69.27-1.38.54-2.08.79-.78.29-1.56.57-2.35.83-.61.21-1.21.41-1.82.6-.13.04-.26.09-.39.12-.19.07-.38.12-.58.18-.2.06-.39.12-.59.18-1.84.56-3.7,1.06-5.59,1.5-.47.11-.93.22-1.41.32h0c-.26.06-.53.11-.79.17-.17.04-.33.07-.5.11-1.59.34-3.19.63-4.81.88-.72.12-1.45.23-2.18.32-.79.11-1.59.21-2.39.3-.55.06-1.09.11-1.64.16-.56.05-1.13.11-1.7.14-1.44.12-2.89.2-4.36.25-.2,0-.4.02-.6.02-.12,0-.24,0-.36,0-.15,0-.3,0-.45,0-.12,0-.23,0-.35,0h-.6c-.1.02-.2.02-.29.02-.25,0-.5,0-.74-.02-.34,0-.69-.01-1.03-.02-.17,0-.34,0-.5-.02-.77-.02-1.53-.05-2.29-.09-1.1-.05-2.19-.12-3.28-.21h0c-.18-.02-.37-.03-.55-.04-.4-.03-.8-.07-1.2-.11-.07,0-.14-.02-.21-.02-1.04-.1-2.08-.21-3.11-.34-.26-.04-.52-.07-.78-.1-.2-.02-.38-.05-.58-.07-1.29-.18-2.57-.37-3.84-.59-1.64-.27-3.26-.59-4.87-.94-.62-.13-1.23-.27-1.83-.41-1.47-.34-2.93-.72-4.38-1.12-.17-.04-.33-.09-.5-.14-.04-.01-.09-.03-.14-.04-.38-.11-.76-.21-1.14-.32-.39-.12-.77-.25-1.16-.37-.35-.12-.7-.23-1.05-.35-.49-.17-.97-.34-1.46-.51-.02,0-.03-.01-.04-.02-.74-.27-1.47-.54-2.2-.82-.06-.02-.12-.05-.18-.07-.55-.21-1.09-.43-1.64-.65-1.6-.65-3.17-1.34-4.73-2.08-.58-.27-1.16-.55-1.73-.83h-.02c-.58-.3-1.16-.59-1.73-.89-.41-.21-.82-.43-1.23-.66-.1-.05-.2-.11-.3-.16-.13-.07-.26-.14-.39-.21-.26-.14-.52-.29-.79-.44-.14-.07-.27-.15-.41-.23-1.41-.79-2.8-1.62-4.16-2.49-.15-.09-.3-.19-.46-.29-.68-.43-1.36-.88-2.03-1.33-.5-.34-1-.68-1.5-1.03-.93-.64-1.84-1.31-2.74-1.99-.04-.03-.07-.06-.11-.09-.51-.39-1.02-.77-1.52-1.17-.65-.51-1.29-1.02-1.93-1.55-.34-.28-.68-.57-1.02-.86-.87-.73-1.72-1.48-2.56-2.25-.34-.31-.68-.62-1.02-.93-.05-.04-.09-.09-.14-.13-.05-.05-.11-.1-.16-.15-1.2-1.13-2.37-2.28-3.5-3.46-.03-.04-.07-.07-.1-.1-.56-.59-1.12-1.18-1.67-1.78-.09-.1-.18-.2-.27-.3-.2-.21-.39-.42-.57-.63-.21-.23-.42-.47-.62-.71-.22-.25-.45-.51-.66-.77-.57-.66-1.12-1.32-1.67-1.99h155.12Z"/>
    <path class="cls-1" d="M25.74,94.08c0,40.56,33.16,68.54,73.72,68.54s73.16-27.97,73.16-68.54S139.75,20.63,99.19,20.63,25.74,53.51,25.74,94.08Z"/>
    <g>
      <g>
        <path class="cls-8" d="M79.37,57.34c0,4.91-2.25,5.35-5.02,5.35-2.24,0-4.14-.29-4.79-2.98-.15-.64-.24-1.42-.24-2.36,0-4.56,4.34-11.05,4.95-11.94.04-.07.07-.1.07-.1,0,0,5.02,7.14,5.02,12.05Z"/>
        <path class="cls-8" d="M77.69,54.9c0,4.91-2.25,5.35-5.02,5.35-1.18,0-2.26-.08-3.11-.54-.15-.64-.24-1.42-.24-2.36,0-4.56,4.34-11.05,4.95-11.94,1.47,2.53,3.42,6.45,3.42,9.51Z"/>
      </g>
      <path class="cls-4" d="M81.45,89.79v66.13c0,6.69-5.42,12.11-12.11,12.11h-32.81c-6.69,0-12.11-5.42-12.11-12.11v-66.13c0-15.75,12.77-28.52,28.52-28.52,1.04,0,2.06.05,3.07.17,6.65.71,12.61,3.7,17.09,8.18,5.16,5.16,8.35,12.29,8.35,20.16Z"/>
      <path class="cls-4" d="M81.45,89.79v66.13c0,6.69-5.42,12.11-12.11,12.11h-26.67c-6.69,0-12.11-5.42-12.11-12.11v-66.13c0-14.71,11.14-26.82,25.45-28.35,6.65.71,12.61,3.7,17.09,8.18,5.16,5.16,8.35,12.29,8.35,20.16Z"/>
      <rect class="cls-5" x="42.62" y="50.85" width="20.64" height="12.5"/>
      <rect class="cls-5" x="47.19" y="50.85" width="16.07" height="12.5"/>
      <rect class="cls-5" x="50.85" y="40.29" width="4.17" height="10.68"/>
      <path class="cls-4" d="M74.34,40.86h-30.92c-1.53,0-2.76-1.24-2.76-2.76h0c0-1.53,1.24-2.76,2.76-2.76h30.92v5.52Z"/>
      <ellipse class="cls-6" cx="53.55" cy="114.65" rx="18.84" ry="38.92"/>
      <g>
        <path class="cls-7" d="M152.4,169.57h-23.99c-8.35,0-14.77-7.43-13.52-15.68,1.31-8.59,2.55-16.93,3.32-24.86,1.35-13.82,1.29-26.43-2.27-37.01-.06-.18-.12-.36-.17-.54-1.52-4.91-1.36-10.21.8-14.88,4.11-8.9,13.12-15.08,23.58-15.08,1.37,0,2.72.11,4.04.31,4,.63,7.7,2.16,10.88,4.4,4.22,2.97,7.52,7.16,9.37,12.07,1.55,4.11,1.71,8.62.51,12.84-.03.11-.06.23-.09.34-.02.05-.03.11-.04.17-.1.35-.19.7-.28,1.05-.11.41-.2.82-.3,1.24-.09.4-.18.8-.26,1.2-.08.39-.16.79-.23,1.18-.03.18-.07.36-.09.54-.05.3-.11.59-.16.89-.06.38-.12.77-.18,1.15-.04.29-.08.58-.12.87-.05.36-.1.71-.14,1.07-.04.29-.07.58-.1.88-.11.99-.2,1.98-.28,3-.05.63-.09,1.27-.12,1.91-.01.16-.02.33-.03.49-.02.48-.05.96-.06,1.44,0,.03,0,.05,0,.08-.03.87-.05,1.74-.06,2.62,0,.56-.01,1.13-.01,1.7,0,.64,0,1.28.02,1.93,0,.54.02,1.08.03,1.63,0,.15,0,.3.01.45.01.45.02.9.04,1.35.02.48.04.96.06,1.45,0,.21.02.41.03.62.02.33.03.66.05,1,.13,2.5.31,5.04.53,7.63.11,1.24.22,2.49.34,3.75.04.43.08.86.13,1.3.04.43.09.87.13,1.3.22,2.18.47,4.38.73,6.61.09.8.19,1.61.29,2.43,0,.09.02.18.03.27.21,1.79.43,3.59.66,5.41.16,1.37.34,2.74.5,4.12,1,8.16-5.34,15.36-13.56,15.36Z"/>
        <path class="cls-7" d="M152.4,169.57h-15.89c-8.35,0-14.78-7.43-13.52-15.68,1.31-8.59,2.55-16.93,3.32-24.86,1.35-13.82,1.29-26.43-2.27-37.01-.06-.18-.12-.36-.17-.54-1.52-4.9-1.36-10.21.8-14.88,3.57-7.73,10.83-13.41,19.52-14.77,4,.63,7.7,2.16,10.88,4.4,4.22,2.97,7.52,7.16,9.37,12.07,1.55,4.11,1.71,8.62.51,12.84-.03.11-.06.23-.09.34-.02.05-.03.11-.04.17-.1.35-.19.7-.28,1.05-.11.41-.2.82-.3,1.24-.09.4-.18.8-.26,1.2-.08.39-.16.79-.23,1.18-.03.18-.07.36-.09.54-.06.3-.11.59-.16.89-.06.38-.12.77-.18,1.15-.04.29-.09.58-.12.87-.05.36-.1.71-.14,1.07-.04.29-.07.58-.1.88-.11.99-.2,1.98-.28,3-.05.63-.09,1.27-.12,1.91-.01.16-.02.33-.03.49-.02.48-.05.96-.06,1.44,0,.03,0,.05,0,.08-.03.87-.05,1.74-.06,2.62,0,.56-.01,1.13-.01,1.7,0,.64,0,1.28.02,1.93,0,.54.02,1.08.03,1.63,0,.15,0,.3.01.45.01.45.02.9.04,1.35.02.48.04.96.06,1.45,0,.21.02.41.03.62.02.33.03.66.05,1,.13,2.5.31,5.04.53,7.63.11,1.24.22,2.49.34,3.75.04.43.08.86.13,1.3.04.43.09.87.13,1.3.22,2.18.47,4.38.73,6.61.09.8.19,1.61.29,2.43,0,.09.02.18.03.27.21,1.79.43,3.59.66,5.41.16,1.37.34,2.74.5,4.12,1,8.16-5.34,15.36-13.56,15.36Z"/>
        <rect class="cls-4" x="130.34" y="52.15" width="20.64" height="12.5"/>
        <rect class="cls-4" x="134.91" y="52.15" width="16.07" height="12.5"/>
        <rect class="cls-4" x="138.58" y="41.58" width="4.17" height="10.68"/>
        <path class="cls-7" d="M131.15,36.63h23.87v5.52h-23.87c-1.52,0-2.76-1.24-2.76-2.76h0c0-1.52,1.24-2.76,2.76-2.76Z"/>
        <path class="cls-7" d="M155.53,44.5l-4.2-3.76,3.68-4.12,4.2,3.76c1.14,1.02,1.23,2.76.22,3.9h0c-1.02,1.14-2.76,1.23-3.9.22Z"/>
        <path class="cls-2" d="M164.85,91.49c-.02.05-.03.11-.04.17-.1.35-.19.7-.28,1.05-.11.41-.2.82-.3,1.24-.09.4-.18.8-.26,1.2-.08.39-.16.79-.23,1.18-.03.18-.07.36-.09.54-.05.3-.11.59-.16.89-.06.38-.12.77-.18,1.15-.04.29-.09.58-.12.87-.05.36-.1.71-.14,1.07-.04.29-.07.58-.1.88-.11.99-.2,1.98-.28,3-.05.63-.09,1.27-.12,1.91-.01.16-.02.33-.03.49-.02.48-.05.96-.06,1.44,0,.03,0,.05,0,.08-.03.87-.05,1.74-.06,2.62,0,.56-.01,1.13-.01,1.7,0,.64,0,1.28.02,1.93,0,.54.02,1.08.03,1.63,0,.15,0,.3.01.45.01.45.02.9.04,1.35.02.48.04.96.06,1.45,0,.21.02.41.03.62.02.33.03.66.05,1,.13,2.5.31,5.04.53,7.63h-44.94c1.35-13.82,1.29-26.43-2.27-37.01-.06-.18-.12-.36-.17-.54h49.08Z"/>
        <path class="cls-2" d="M164.85,91.49c-.02.05-.03.11-.04.17-.1.35-.19.7-.28,1.05-.11.41-.2.82-.3,1.24-.09.4-.18.8-.26,1.2-.08.39-.16.79-.23,1.18-.03.18-.07.36-.09.54-.05.3-.11.59-.16.89-.06.38-.12.77-.18,1.15-.04.29-.09.58-.12.87-.05.36-.1.71-.14,1.07-.04.29-.07.58-.1.88-.11.99-.2,1.98-.28,3-.05.63-.09,1.27-.12,1.91-.01.16-.02.33-.03.49-.02.48-.05.96-.06,1.44,0,.03,0,.05,0,.08-.03.87-.05,1.74-.06,2.62,0,.56-.01,1.13-.01,1.7,0,.64,0,1.28.02,1.93,0,.54.02,1.08.03,1.63,0,.15,0,.3.01.45.01.45.02.9.04,1.35.02.48.04.96.06,1.45,0,.21.02.41.03.62.02.33.03.66.05,1,.13,2.5.31,5.04.53,7.63h-36.73c1.35-13.82,1.29-26.43-2.27-37.01-.06-.18-.12-.36-.17-.54h40.88Z"/>
      </g>
      <g>
        <path class="cls-6" d="M117.08,154.83l-.45,9.06-.08,1.57-.08,1.6c-.1,2.04-1.78,3.63-3.82,3.63h-17.55c-2.04,0-3.72-1.6-3.82-3.63l-.08-1.6-.08-1.57-.45-9.06h26.4Z"/>
        <polygon class="cls-8" points="122.32 82.17 121.72 90.48 117.08 154.83 90.68 154.83 86.05 90.48 85.45 82.17 122.32 82.17"/>
        <polygon class="cls-8" points="121.72 90.48 120.53 106.91 118.31 137.75 117.08 154.83 90.68 154.83 89.45 137.75 87.23 106.91 86.05 90.48 121.72 90.48"/>
        <polygon class="cls-8" points="118.68 90.48 117.5 106.91 115.28 137.75 114.05 154.83 90.68 154.83 89.45 137.75 87.23 106.91 86.05 90.48 118.68 90.48"/>
        <rect class="cls-2" x="87.98" y="82.17" width="3.31" height="8.31"/>
        <rect class="cls-2" x="94.78" y="82.17" width="3.31" height="8.31"/>
        <rect class="cls-2" x="102.01" y="82.17" width="3.31" height="8.31"/>
        <rect class="cls-2" x="109.33" y="82.17" width="3.31" height="8.31"/>
        <rect class="cls-2" x="116.31" y="82.17" width="3.31" height="8.31"/>
        <polygon class="cls-2" points="116.64 163.89 116.56 165.46 91.21 165.46 91.13 163.89 116.64 163.89"/>
        <polygon class="cls-6" points="120.53 106.91 118.31 137.75 89.45 137.75 87.23 106.91 120.53 106.91"/>
        <polygon class="cls-6" points="117.5 106.91 115.28 137.75 89.45 137.75 87.23 106.91 117.5 106.91"/>
      </g>
    </g>
  </g>
</svg>