<?xml version="1.0" encoding="UTF-8"?>
<svg id="Digital_Health" data-name="Digital Health" xmlns="http://www.w3.org/2000/svg" viewBox="0 0 200 200">
  <defs>
    <style>
      .cls-1 {
        fill: #ceb14f;
      }

      .cls-2 {
        fill: #151516;
      }

      .cls-3 {
        fill: #1c2549;
      }

      .cls-4 {
        fill: #19203c;
      }

      .cls-5 {
        fill: #dcddde;
      }

      .cls-6 {
        fill: #476893;
      }

      .cls-7 {
        stroke: #a7d6e8;
      }

      .cls-7, .cls-8, .cls-9 {
        fill: none;
        stroke-miterlimit: 10;
        stroke-width: 10px;
      }

      .cls-8 {
        stroke: #3c6997;
      }

      .cls-9 {
        stroke: #f0eee5;
      }

      .cls-10 {
        fill: #f2f3f4;
      }
    </style>
  </defs>
  <circle class="cls-2" cx="100" cy="100" r="100"/>
  <g>
    <polyline class="cls-7" points="91.39 63.66 81.52 53.79 64.56 53.79"/>
    <line class="cls-9" x1="64.81" y1="72.09" x2="49.79" y2="72.09"/>
    <polyline class="cls-7" points="97.05 136.34 87.18 146.21 70.22 146.21"/>
    <line class="cls-8" x1="79.2" y1="122.58" x2="66.39" y2="122.58"/>
    <line class="cls-7" x1="71.96" y1="97.33" x2="43.47" y2="97.33"/>
    <circle class="cls-7" cx="40.14" cy="97.33" r="4.48"/>
    <circle class="cls-8" cx="62.15" cy="122.58" r="4.48"/>
    <circle class="cls-9" cx="45.31" cy="72.09" r="4.48"/>
    <circle class="cls-7" cx="60.01" cy="53.79" r="4.48"/>
    <circle class="cls-7" cx="66.73" cy="146.21" r="4.48"/>
    <polyline class="cls-7" points="103.87 136.34 113.74 146.21 130.69 146.21"/>
    <line class="cls-9" x1="118.81" y1="122.58" x2="133.83" y2="122.58"/>
    <polyline class="cls-9" points="108.38 63.66 118.25 53.79 135.21 53.79"/>
    <line class="cls-7" x1="138.18" y1="72.09" x2="150.99" y2="72.09"/>
    <line class="cls-8" x1="128.04" y1="97.33" x2="156.53" y2="97.33"/>
    <circle class="cls-8" cx="159.86" cy="97.33" r="4.48"/>
    <circle class="cls-7" cx="155.23" cy="72.09" r="4.48"/>
    <circle class="cls-9" cx="138.31" cy="122.58" r="4.48"/>
    <circle class="cls-7" cx="135.25" cy="146.21" r="4.48"/>
    <circle class="cls-9" cx="138.7" cy="53.79" r="4.48"/>
    <path class="cls-1" d="M140.75,89.38c0,24.06-28.64,44.26-37.48,49.93-1.57,1-3.57,1-5.14,0-8.84-5.67-37.48-25.87-37.48-49.93,0-3.78.32-13.38.92-20.56.25-3.01,3.56-4.79,6.18-3.28,3.45,1.98,7.45,3.12,11.71,3.12,7.81,0,14.74-9.02,19.01-14.89,1.1-1.51,3.36-1.51,4.46,0,4.28,5.86,11.2,14.89,19.01,14.89,4.27,0,8.27-1.13,11.71-3.12,2.62-1.51,5.92.27,6.18,3.28.6,7.17.92,16.78.92,20.56Z"/>
    <path class="cls-1" d="M76.02,89.38c0-3.78.32-13.38.92-20.56,0-.1.02-.2.04-.29-3.34-.35-6.47-1.39-9.24-2.99-2.62-1.51-5.92.27-6.18,3.28-.6,7.17-.92,16.78-.92,20.56,0,24.06,28.64,44.26,37.48,49.93,1.57,1,3.57,1,5.14,0,1.32-.85,3.08-2.02,5.12-3.47-11.63-8.31-32.36-25.99-32.36-46.46Z"/>
    <g>
      <path class="cls-5" d="M127.93,95.01s-12.2,14.31-27.24,14.31-27.24-14.31-27.24-14.31h0c.08-.1,2.46-2.86,6.36-5.93,5-3.94,12.49-8.38,20.88-8.38,13.92,0,25.4,12.25,27.04,14.08.12.13.19.21.2.23,0,0,0,0,0,0Z"/>
      <path class="cls-10" d="M127.73,94.78c-5,3.94-12.5,8.38-20.88,8.38-13.92,0-25.4-12.24-27.04-14.08,5-3.94,12.49-8.38,20.88-8.38,13.92,0,25.4,12.25,27.04,14.08Z"/>
      <path class="cls-6" d="M112.94,95.41c0,5.93-4.2,10.89-9.79,12.05-.82.17-1.66.26-2.52.26-6.8,0-12.31-5.51-12.31-12.31s5.51-12.31,12.31-12.31c.86,0,1.71.09,2.52.26,5.59,1.16,9.79,6.12,9.79,12.05Z"/>
      <path class="cls-6" d="M112.94,95.41c0,5.93-4.2,10.89-9.79,12.05-5.59-1.16-9.79-6.12-9.79-12.05s4.2-10.89,9.79-12.05c5.59,1.16,9.79,6.12,9.79,12.05Z"/>
      <path class="cls-4" d="M105.68,95.45c0,2.35-1.61,4.33-3.79,4.89-.4.1-.83.16-1.26.16-2.79,0-5.05-2.26-5.05-5.05s2.26-5.05,5.05-5.05c.44,0,.86.05,1.26.16,2.18.56,3.79,2.54,3.79,4.89Z"/>
      <path class="cls-3" d="M105.68,95.45c0,2.35-1.61,4.33-3.79,4.89-2.18-.56-3.79-2.54-3.79-4.89s1.61-4.33,3.79-4.89c2.18.56,3.79,2.54,3.79,4.89Z"/>
      <circle class="cls-10" cx="104.52" cy="92.24" r="3.83"/>
      <circle class="cls-10" cx="105.37" cy="98.93" r="1.58"/>
    </g>
  </g>
</svg>