<?xml version="1.0" encoding="UTF-8"?>
<svg id="Gaming" xmlns="http://www.w3.org/2000/svg" viewBox="0 0 200 200">
  <defs>
    <style>
      .cls-1 {
        fill: #ceb14f;
      }

      .cls-2 {
        fill: #151516;
      }

      .cls-3 {
        fill: #dcddde;
      }

      .cls-4 {
        fill: #f0eee6;
      }

      .cls-5 {
        fill: #1e1e1f;
      }

      .cls-6 {
        fill: #b7c1d0;
      }
    </style>
  </defs>
  <ellipse class="cls-3" cx="100" cy="100" rx="100.04" ry="100"/>
  <g>
    <path class="cls-5" d="M100,94.44c-2.16,0-3.91-1.75-3.91-3.91v-55.64c0-2.16,1.75-3.91,3.91-3.91s3.91,1.75,3.91,3.91v55.64c0,2.16-1.75,3.91-3.91,3.91Z"/>
    <g>
      <g>
        <path class="cls-5" d="M142.4,170.7l-24.43-14.63c-3.03-1.81-6.49-2.77-10.03-2.77h-15.88c-3.54,0-7,.96-10.03,2.77l-24.43,14.63c-6.34,3.8-14.29-1.31-13.47-8.65l.9-8.06,3.77-33.64c1.9-16.98,16.27-29.83,33.36-29.83h35.67c17.1,0,31.46,12.84,33.36,29.83l3.77,33.64.9,8.06c.82,7.34-7.12,12.44-13.46,8.65Z"/>
        <path class="cls-5" d="M142.4,170.7l-24.43-14.63c-3.03-1.81-6.49-2.77-10.03-2.77h-7.94v-62.77h17.84c17.1,0,31.46,12.84,33.36,29.83l3.77,33.64.9,8.06c.82,7.34-7.12,12.44-13.46,8.65Z"/>
      </g>
      <g>
        <path class="cls-2" d="M154.96,154c-2.21,4.31-7.83,6.43-12.56,3.6l-22.61-13.54c-4.22-2.53-9.04-3.86-13.96-3.86h-11.65c-4.92,0-9.74,1.33-13.96,3.86l-22.61,13.54c-4.73,2.83-10.36.71-12.57-3.6l3.77-33.64c1.9-16.98,16.27-29.83,33.36-29.83h35.67c17.1,0,31.46,12.84,33.36,29.83l3.77,33.64Z"/>
        <path class="cls-2" d="M154.96,154c-2.21,4.31-7.83,6.43-12.56,3.6l-22.61-13.54c-4.22-2.53-9.04-3.86-13.96-3.86h-5.83v-49.67h17.84c17.1,0,31.46,12.84,33.36,29.83l3.77,33.64Z"/>
      </g>
    </g>
    <g>
      <path class="cls-4" d="M87.4,117v3.43c0,1.58-1.28,2.86-2.87,2.86h-3.95c-1.58,0-2.87,1.28-2.87,2.86v4.9c0,1.58-1.28,2.86-2.86,2.86h-3.44c-1.58,0-2.86-1.28-2.86-2.86v-4.9c0-1.58-1.28-2.86-2.87-2.86h-3.95c-1.58,0-2.87-1.28-2.87-2.86v-3.43s0-.06,0-.09c.04-1.54,1.31-2.78,2.86-2.78h3.95c1.58,0,2.87-1.28,2.87-2.86v-3c0-1.58,1.28-2.86,2.86-2.86h3.44c1.58,0,2.86,1.28,2.86,2.86v3c0,1.58,1.28,2.86,2.87,2.86h3.95c1.55,0,2.82,1.23,2.86,2.78,0,.03,0,.06,0,.09Z"/>
      <path class="cls-4" d="M87.39,116.91c-.04,1.54-1.31,2.77-2.86,2.77h-3.95c-1.58,0-2.87,1.28-2.87,2.86v4.89c0,1.58-1.28,2.86-2.86,2.86h-3.44c-1.58,0-2.86-1.28-2.86-2.86v-4.89c0-1.58-1.28-2.86-2.87-2.86h-3.95c-1.55,0-2.82-1.23-2.86-2.77.04-1.54,1.31-2.78,2.86-2.78h3.95c1.58,0,2.87-1.28,2.87-2.86v-3c0-1.58,1.28-2.86,2.86-2.86h3.44c1.58,0,2.86,1.28,2.86,2.86v3c0,1.58,1.28,2.86,2.87,2.86h3.95c1.55,0,2.82,1.23,2.86,2.78Z"/>
      <path class="cls-4" d="M81.73,115.14h-5.35v-3.51c0-.81-.65-1.46-1.46-1.46h0c-.81,0-1.46.65-1.46,1.46v3.51h-5.35c-.81,0-1.46.65-1.46,1.46s.65,1.46,1.46,1.46h5.35v4.38c0,.81.65,1.46,1.46,1.46h0c.81,0,1.46-.65,1.46-1.46v-4.38h5.35c.81,0,1.46-.65,1.46-1.46s-.65-1.46-1.46-1.46Z"/>
    </g>
    <g>
      <g>
        <path class="cls-1" d="M131.57,107.67c0,2.96-2.41,5.37-5.37,5.37s-5.37-2.41-5.37-5.37c0-.46.06-.91.17-1.34.59-2.32,2.7-4.03,5.2-4.03s4.61,1.71,5.2,4.03c.11.43.17.87.17,1.34Z"/>
        <path class="cls-1" d="M131.4,106.34c-.59,2.32-2.7,4.03-5.2,4.03s-4.61-1.72-5.2-4.03c.59-2.32,2.7-4.03,5.2-4.03s4.61,1.71,5.2,4.03Z"/>
      </g>
      <g>
        <path class="cls-1" d="M131.57,131.65c0,2.96-2.41,5.37-5.37,5.37s-5.37-2.41-5.37-5.37c0-.46.06-.91.17-1.34.59-2.32,2.7-4.03,5.2-4.03s4.61,1.71,5.2,4.03c.11.43.17.87.17,1.34Z"/>
        <path class="cls-1" d="M131.4,130.32c-.59,2.32-2.7,4.03-5.2,4.03s-4.61-1.72-5.2-4.03c.59-2.32,2.7-4.03,5.2-4.03s4.61,1.71,5.2,4.03Z"/>
      </g>
      <g>
        <g>
          <path class="cls-1" d="M143.56,118.57c0,2.96-2.41,5.37-5.37,5.37s-5.37-2.41-5.37-5.37c0-.46.06-.91.17-1.34.59-2.32,2.7-4.03,5.2-4.03s4.61,1.71,5.2,4.03c.11.43.17.87.17,1.34Z"/>
          <path class="cls-1" d="M143.39,117.24c-.59,2.32-2.7,4.03-5.2,4.03s-4.61-1.72-5.2-4.03c.59-2.32,2.7-4.03,5.2-4.03s4.61,1.71,5.2,4.03Z"/>
        </g>
        <g>
          <path class="cls-1" d="M119.57,118.57c0,2.96-2.41,5.37-5.37,5.37s-5.37-2.41-5.37-5.37c0-.46.06-.91.17-1.34.59-2.32,2.7-4.03,5.2-4.03s4.61,1.71,5.2,4.03c.11.43.17.87.17,1.34Z"/>
          <path class="cls-1" d="M119.4,117.24c-.59,2.32-2.7,4.03-5.2,4.03s-4.61-1.72-5.2-4.03c.59-2.32,2.7-4.03,5.2-4.03s4.61,1.71,5.2,4.03Z"/>
        </g>
      </g>
    </g>
    <g>
      <path class="cls-6" d="M116.47,100.45c0,2.81-2.28,5.1-5.1,5.1h-22.72c-1.41,0-2.68-.57-3.61-1.49-.92-.92-1.49-2.2-1.49-3.6,0-2.82,2.28-5.1,5.1-5.1h22.72c1.41,0,2.68.57,3.61,1.49s1.49,2.2,1.49,3.61Z"/>
      <path class="cls-6" d="M116.47,100.45c0,2.81-2.28,5.1-5.1,5.1h-11.36v-10.2h11.36c1.41,0,2.68.57,3.61,1.49s1.49,2.2,1.49,3.61Z"/>
    </g>
  </g>
  <g>
    <g>
      <path class="cls-1" d="M173.06,133.95c-.27.27-.64.44-1.06.44-.83,0-1.5-.67-1.5-1.5v-49.04c0-6.82-2.66-13.23-7.48-18.05l-41.28-41.26c-.58-.58-.58-1.53,0-2.11.58-.58,1.53-.58,2.12,0l41.28,41.26c5.39,5.38,8.35,12.54,8.35,20.16v49.04c0,.41-.17.79-.44,1.06Z"/>
      <g>
        <path class="cls-1" d="M169.73,97.48l-1.07,1.07c-2.42,2.42-6.49,1.82-8.1-1.2l-5.66-10.58c-1.05-1.96,1.08-4.09,3.05-3.04l10.59,5.66c3.02,1.61,3.62,5.68,1.2,8.1Z"/>
        <path class="cls-1" d="M157.88,54.49h-1.29c-2.9,0-4.98-2.8-4.14-5.57l2.95-9.73c.55-1.8,3.1-1.8,3.65,0l2.95,9.73c.84,2.77-1.24,5.57-4.14,5.57Z"/>
        <path class="cls-1" d="M139.93,36.62h-1.14c-2.57,0-4.42-2.48-3.67-4.94l2.62-8.63c.49-1.6,2.75-1.6,3.24,0l2.62,8.63c.75,2.46-1.1,4.94-3.67,4.94Z"/>
        <path class="cls-1" d="M127.31,27.18l-.81.81c-1.82,1.82-4.88,1.36-6.09-.9l-4.26-7.96c-.79-1.48.81-3.08,2.29-2.29l7.96,4.25c2.27,1.21,2.72,4.27.9,6.09Z"/>
        <path class="cls-1" d="M144.9,48.44v1.29c0,2.9-2.8,4.98-5.58,4.13l-9.74-2.95c-1.8-.55-1.8-3.1,0-3.65l9.74-2.95c2.78-.84,5.58,1.23,5.58,4.13Z"/>
        <path class="cls-1" d="M164,68.65l-.29,1.28c-.65,2.89-3.91,4.34-6.49,2.88l-9.05-5.12c-1.68-.95-1.11-3.5.82-3.64l10.37-.77c2.96-.22,5.28,2.48,4.64,5.37Z"/>
        <path class="cls-1" d="M175.27,113.59l-1.07-1.07c-2.42-2.42-1.82-6.49,1.2-8.1l10.59-5.66c1.96-1.05,4.09,1.08,3.05,3.04l-5.66,10.58c-1.61,3.02-5.68,3.62-8.1,1.2Z"/>
        <path class="cls-1" d="M175.53,80.2l-1.28-.61c-2.88-1.37-3.61-5.13-1.47-7.49l7.54-8.26c1.4-1.53,3.93-.32,3.62,1.73l-1.68,11.05c-.48,3.15-3.86,4.95-6.74,3.57Z"/>
      </g>
    </g>
    <g>
      <path class="cls-1" d="M26.94,133.95c.27.27.64.44,1.06.44.83,0,1.5-.67,1.5-1.5v-49.04c0-6.82,2.66-13.23,7.48-18.05l41.28-41.26c.58-.58.58-1.53,0-2.11-.58-.58-1.53-.58-2.12,0l-41.28,41.26c-5.39,5.38-8.35,12.54-8.35,20.16v49.04c0,.41.17.79.44,1.06Z"/>
      <g>
        <path class="cls-1" d="M30.27,97.48l1.07,1.07c2.42,2.42,6.49,1.82,8.1-1.2l5.66-10.58c1.05-1.96-1.08-4.09-3.05-3.04l-10.59,5.66c-3.02,1.61-3.62,5.68-1.2,8.1Z"/>
        <path class="cls-1" d="M42.12,54.49h1.29c2.9,0,4.98-2.8,4.14-5.57l-2.95-9.73c-.55-1.8-3.1-1.8-3.65,0l-2.95,9.73c-.84,2.77,1.24,5.57,4.14,5.57Z"/>
        <path class="cls-1" d="M60.07,36.62h1.14c2.57,0,4.42-2.48,3.67-4.94l-2.62-8.63c-.49-1.6-2.75-1.6-3.24,0l-2.62,8.63c-.75,2.46,1.1,4.94,3.67,4.94Z"/>
        <path class="cls-1" d="M72.69,27.18l.81.81c1.82,1.82,4.88,1.36,6.09-.9l4.26-7.96c.79-1.48-.81-3.08-2.29-2.29l-7.96,4.25c-2.27,1.21-2.72,4.27-.9,6.09Z"/>
        <path class="cls-1" d="M55.1,48.44v1.29c0,2.9,2.8,4.98,5.58,4.13l9.74-2.95c1.8-.55,1.8-3.1,0-3.65l-9.74-2.95c-2.78-.84-5.58,1.23-5.58,4.13Z"/>
        <path class="cls-1" d="M36,68.65l.29,1.28c.65,2.89,3.91,4.34,6.49,2.88l9.05-5.12c1.68-.95,1.11-3.5-.82-3.64l-10.37-.77c-2.96-.22-5.28,2.48-4.64,5.37Z"/>
        <path class="cls-1" d="M24.73,113.59l1.07-1.07c2.42-2.42,1.82-6.49-1.2-8.1l-10.59-5.66c-1.96-1.05-4.09,1.08-3.05,3.04l5.66,10.58c1.61,3.02,5.68,3.62,8.1,1.2Z"/>
        <path class="cls-1" d="M24.47,80.2l1.28-.61c2.88-1.37,3.61-5.13,1.47-7.49l-7.54-8.26c-1.4-1.53-3.93-.32-3.62,1.73l1.68,11.05c.48,3.15,3.86,4.95,6.74,3.57Z"/>
      </g>
    </g>
  </g>
</svg>